<svg width="180" height="32" viewBox="0 0 180 32" fill="none" xmlns="http://www.w3.org/2000/svg">
    <path
        d="M173.666 31.3485L169.096 24.4533L165.047 31.3485H159.034L166.29 20.204L158.954 9.13965H165.288L169.817 15.9947L173.906 9.13965H179.92L172.624 20.204L180 31.3485H173.666Z"
        fill="white" />
    <path
        d="M153.088 6.57445C152.1 6.57445 151.271 6.26711 150.603 5.65242C149.962 5.01101 149.641 4.22261 149.641 3.28722C149.641 2.35184 149.962 1.5768 150.603 0.962114C151.271 0.320705 152.1 0 153.088 0C154.077 0 154.892 0.320705 155.534 0.962114C156.202 1.5768 156.536 2.35184 156.536 3.28722C156.536 4.22261 156.202 5.01101 155.534 5.65242C154.892 6.26711 154.077 6.57445 153.088 6.57445ZM155.855 9.22026V31.4291H150.242V9.22026H155.855Z"
        fill="white" />
    <path
        d="M139.65 12.5119C140.372 11.336 141.307 10.414 142.456 9.74586C143.632 9.07772 144.968 8.74365 146.465 8.74365V14.6366H144.982C143.218 14.6366 141.882 15.0508 140.973 15.8793C140.091 16.7078 139.65 18.151 139.65 20.2088V31.2732H134.038V9.06436H139.65V12.5119Z"
        fill="white" />
    <path
        d="M125.029 13.6793V24.423C125.029 25.1713 125.203 25.7191 125.55 26.0666C125.924 26.3873 126.539 26.5476 127.394 26.5476H130V31.278H126.472C121.742 31.278 119.377 28.9796 119.377 24.3829V13.6793H116.731V9.06922H119.377V3.57715H125.029V9.06922H130V13.6793H125.029Z"
        fill="white" />
    <path
        d="M114.394 19.3289C114.394 20.1306 114.341 20.8522 114.234 21.4936H97.9979C98.1316 23.0971 98.6928 24.3532 99.6816 25.2619C100.67 26.1706 101.886 26.6249 103.33 26.6249C105.414 26.6249 106.897 25.7296 107.779 23.939H113.833C113.191 26.077 111.962 27.8409 110.145 29.2306C108.327 30.5936 106.096 31.2751 103.45 31.2751C101.312 31.2751 99.3877 30.8074 97.6772 29.872C95.9935 28.9099 94.6706 27.5603 93.7085 25.8231C92.7731 24.086 92.3054 22.0816 92.3054 19.8099C92.3054 17.5115 92.7731 15.4938 93.7085 13.7566C94.6439 12.0195 95.9534 10.6832 97.6371 9.74781C99.3208 8.81242 101.258 8.34473 103.45 8.34473C105.561 8.34473 107.445 8.79906 109.102 9.70772C110.786 10.6164 112.082 11.9126 112.991 13.5963C113.926 15.2532 114.394 17.1641 114.394 19.3289ZM108.581 17.7253C108.554 16.2822 108.033 15.133 107.018 14.2778C106.002 13.3958 104.759 12.9549 103.29 12.9549C101.9 12.9549 100.724 13.3825 99.7618 14.2377C98.8264 15.0662 98.2518 16.2287 98.038 17.7253H108.581Z"
        fill="white" />
    <path
        d="M79.5546 8.74365C82.2004 8.74365 84.3384 9.5855 85.9687 11.2692C87.5989 12.9262 88.4141 15.2513 88.4141 18.2445V31.2732H82.8017V19.0062C82.8017 17.2423 82.3608 15.8927 81.4788 14.9573C80.5969 13.9952 79.3942 13.5141 77.8709 13.5141C76.3208 13.5141 75.0915 13.9952 74.1828 14.9573C73.3009 15.8927 72.8599 17.2423 72.8599 19.0062V31.2732H67.2476V9.06436H72.8599V11.8304C73.6082 10.8683 74.557 10.12 75.7061 9.5855C76.8821 9.02427 78.1649 8.74365 79.5546 8.74365Z"
        fill="white" />
    <path
        d="M51.9021 9.13916C58.0479 9.13917 63.03 14.1213 63.03 20.2671C63.03 26.4128 58.0478 31.395 51.9021 31.395C45.7563 31.395 40.7742 26.4128 40.7742 20.2671C40.7742 14.1213 45.7563 9.13916 51.9021 9.13916ZM52.8025 12.3892C52.4803 11.5725 51.324 11.5726 51.0017 12.3892L49.1824 17.0024C49.0841 17.2517 48.8867 17.449 48.6375 17.5474L44.0242 19.3667C43.2073 19.6889 43.2073 20.8453 44.0242 21.1675L48.6375 22.9868C48.8867 23.0852 49.084 23.2825 49.1824 23.5317L51.0017 28.145C51.3239 28.9619 52.4803 28.9619 52.8025 28.145L54.6218 23.5317C54.7202 23.2825 54.9175 23.0851 55.1667 22.9868L59.78 21.1675C60.5966 20.8452 60.5967 19.6889 59.78 19.3667L55.1667 17.5474C54.9174 17.449 54.7202 17.2518 54.6218 17.0024L52.8025 12.3892Z"
        fill="white" />
    <path
        d="M27.5806 8.74365C30.3066 8.74365 32.4981 9.5855 34.1551 11.2692C35.8388 12.9262 36.6806 15.2513 36.6806 18.2445V31.2732H31.0683V19.0062C31.0683 17.2691 30.6273 15.9461 29.7454 15.0375C28.8634 14.1021 27.6608 13.6344 26.1374 13.6344C24.6141 13.6344 23.3981 14.1021 22.4894 15.0375C21.6075 15.9461 21.1665 17.2691 21.1665 19.0062V31.2732H15.5542V19.0062C15.5542 17.2691 15.1132 15.9461 14.2313 15.0375C13.3493 14.1021 12.1467 13.6344 10.6233 13.6344C9.07327 13.6344 7.8439 14.1021 6.93524 15.0375C6.0533 15.9461 5.61233 17.2691 5.61233 19.0062V31.2732H0V9.06436H5.61233V11.7503C6.33392 10.8149 7.25594 10.0799 8.37841 9.54541C9.5276 9.01091 10.7837 8.74365 12.1467 8.74365C13.8838 8.74365 15.4339 9.11781 16.7969 9.86612C18.1599 10.5877 19.2156 11.63 19.9639 12.993C20.6855 11.7102 21.7277 10.6812 23.0907 9.90621C24.4805 9.13117 25.9771 8.74365 27.5806 8.74365Z"
        fill="white" />
</svg>